<svg width="16" height="16" viewBox="0 0 16 16" fill="none" xmlns="http://www.w3.org/2000/svg">
<path d="M13.7518 10.6659C13.6999 10.6034 13.649 10.5409 13.599 10.4806C12.9115 9.64906 12.4955 9.14719 12.4955 6.79313C12.4955 5.57438 12.204 4.57437 11.6293 3.82437C11.2055 3.27031 10.6327 2.85 9.87772 2.53938C9.868 2.53397 9.85932 2.52688 9.85209 2.51844C9.58053 1.60906 8.8374 1 7.99928 1C7.16115 1 6.41834 1.60906 6.14678 2.5175C6.13954 2.52565 6.13099 2.53251 6.12147 2.53781C4.35959 3.26312 3.50334 4.65469 3.50334 6.79219C3.50334 9.14719 3.08803 9.64906 2.3999 10.4797C2.3499 10.54 2.29897 10.6012 2.24709 10.665C2.11309 10.8266 2.02819 11.0232 2.00244 11.2316C1.97669 11.4399 2.01116 11.6513 2.10178 11.8406C2.29459 12.2469 2.70553 12.4991 3.17459 12.4991H12.8274C13.2943 12.4991 13.7024 12.2472 13.8958 11.8428C13.9869 11.6534 14.0217 11.4419 13.9961 11.2333C13.9706 11.0247 13.8858 10.8278 13.7518 10.6659ZM7.99928 15C8.45085 14.9996 8.89391 14.8771 9.28146 14.6453C9.669 14.4135 9.98659 14.0811 10.2005 13.6834C10.2106 13.6644 10.2156 13.643 10.215 13.6215C10.2144 13.5999 10.2082 13.5789 10.1971 13.5604C10.1859 13.542 10.1702 13.5267 10.1514 13.5161C10.1327 13.5055 10.1115 13.5 10.0899 13.5H5.90928C5.88769 13.4999 5.86646 13.5054 5.84763 13.516C5.82881 13.5266 5.81305 13.5418 5.80188 13.5603C5.79071 13.5788 5.78451 13.5998 5.78389 13.6214C5.78327 13.643 5.78825 13.6644 5.79834 13.6834C6.01226 14.0811 6.3298 14.4134 6.71728 14.6452C7.10477 14.877 7.54776 14.9996 7.99928 15Z" fill="#A0521A"/>
</svg>
