<svg width="16" height="16" viewBox="0 0 16 16" fill="none" xmlns="http://www.w3.org/2000/svg">
<path d="M15.333 4.66656C14.1579 4.6019 12.9921 4.90734 11.9996 5.53989C11.7596 5.26656 11.513 4.99322 11.253 4.73322L11.0596 4.55322L11.153 4.47322C11.479 4.19336 11.7113 3.82023 11.8186 3.40418C11.9259 2.98813 11.903 2.54918 11.753 2.14656C11.5363 1.69201 11.1922 1.31018 10.7626 1.04745C10.333 0.784718 9.83635 0.652396 9.33298 0.666556V1.99989C9.57018 1.99659 9.80396 2.05663 10.0102 2.17382C10.2165 2.29101 10.3877 2.4611 10.5063 2.66656C10.6196 2.93322 10.5063 3.22656 10.193 3.53989L10.0396 3.67989C9.34427 3.10046 8.58086 2.60794 7.76631 2.21322C6.07965 1.45322 5.21298 1.80656 4.78631 2.21322C4.6563 2.34355 4.55223 2.49739 4.47965 2.66656L4.35965 3.01989L3.39965 5.91322C4.15965 7.80656 5.99965 11.1732 9.99965 12.6266L13.333 11.5199C13.4454 11.478 13.5444 11.4066 13.6196 11.3132L13.7596 11.1932C14.713 10.2332 14.0996 8.38656 12.8196 6.59322C13.5797 6.14966 14.4548 5.94306 15.333 5.99989V4.66656ZM12.8063 10.2466H12.7663C12.3063 10.4932 10.3996 9.86656 8.23965 7.70656C8.01298 7.47989 7.79965 7.25989 7.60631 7.03989C7.53965 6.96656 7.47965 6.88656 7.41298 6.80656L7.05965 6.37989L6.87298 6.11989C6.77965 5.99322 6.68631 5.86656 6.60631 5.74656C6.52631 5.62656 6.49965 5.57322 6.44631 5.48656C6.39298 5.39989 6.29965 5.25989 6.23965 5.14656C6.17965 5.03322 6.15298 4.98656 6.11298 4.89989C6.07298 4.81322 5.99964 4.71322 5.95964 4.61989C5.91964 4.52656 5.89965 4.46656 5.86631 4.39322C5.83298 4.31989 5.79298 4.21322 5.76631 4.12656C5.73965 4.03989 5.73298 3.99989 5.71965 3.93322C5.70631 3.86656 5.67965 3.77322 5.66631 3.70656C5.66311 3.65327 5.66311 3.59984 5.66631 3.54656C5.65976 3.48896 5.65976 3.43081 5.66631 3.37322L5.73965 3.16656C5.85298 3.04656 6.34631 3.01322 7.22631 3.41322C7.81441 3.69575 8.37086 4.0399 8.88631 4.43989C8.60531 4.56391 8.30569 4.6405 7.99965 4.66656V5.99989C8.70789 5.95971 9.3951 5.74438 9.99965 5.37322L10.3263 5.67989C10.6196 5.96656 10.8796 6.25322 11.1196 6.52656C10.7177 7.21198 10.558 8.01271 10.6663 8.79989L11.9996 8.53989C11.9546 8.28856 11.9546 8.03122 11.9996 7.77989C12.8596 9.09322 13.0196 10.0399 12.8063 10.2466ZM2.93298 7.33322L1.44631 11.7999C1.33901 12.1278 1.31084 12.4765 1.3641 12.8174C1.41735 13.1583 1.55053 13.4818 1.75274 13.7614C1.95495 14.041 2.22046 14.2687 2.52755 14.426C2.83464 14.5834 3.1746 14.6658 3.51965 14.6666C3.74647 14.6643 3.9715 14.6261 4.18631 14.5532L8.53298 13.1066C6.07973 11.8537 4.11054 9.82351 2.93298 7.33322Z" fill="#A0521A"/>
</svg>
